<svg width="236" height="40" viewBox="0 0 236 40" fill="none" xmlns="http://www.w3.org/2000/svg">
<path d="M32 0H8C3.58172 0 0 3.58172 0 8V32C0 36.4183 3.58172 40 8 40H32C36.4183 40 40 36.4183 40 32V8C40 3.58172 36.4183 0 32 0Z" fill="black"/>
<path fill-rule="evenodd" clip-rule="evenodd" d="M23.3658 19.3232H22.5361V14.0481H23.4468C24.7218 14.0481 26.9682 14.212 26.9682 16.6037C26.9682 19.3232 24.0944 19.3232 23.3658 19.3232ZM27.6361 12.6305C26.2299 11.8771 24.6195 11.5413 23.0117 11.6661H19.8748V28.3594H22.5361V21.5123H22.9813L28.0408 28.3594H31.2891L25.8147 21.2327C26.9363 21.0176 27.9427 20.4329 28.657 19.5811C29.3712 18.7292 29.7478 17.6649 29.7206 16.5748C29.7382 15.805 29.5574 15.0428 29.194 14.3551C28.8305 13.6674 28.2956 13.0752 27.6361 12.6305ZM8.71094 28.3339V11.6406H11.4127V25.9519H18.3746V28.3339H8.71094Z" fill="white"/>
<mask id="mask0_642_9582" style="mask-type:luminance" maskUnits="userSpaceOnUse" x="48" y="10" width="188" height="20">
<path d="M235.5 10.9951H48V29.0051H235.5V10.9951Z" fill="white"/>
</mask>
<g mask="url(#mask0_642_9582)">
<path d="M194.99 11.3452V28.6552H204.54V26.1852H197.66V11.3452H194.99Z" fill="#191921"/>
<path d="M96.0488 11.3452V28.6552H105.599V26.1852H98.7188V20.4452H105.399V17.9752H98.7188V13.8152H105.599V11.3452H96.0488Z" fill="#191921"/>
<path d="M48 11.3452V28.6552H57.55V26.1852H50.67V11.3452H48Z" fill="#191921"/>
<path d="M73.9999 19.995C73.9999 16.165 71.4299 13.435 67.7699 13.435C64.1099 13.435 61.5399 16.195 61.5399 19.995C61.5399 23.795 64.1099 26.505 67.7699 26.505C71.4299 26.505 73.9999 23.835 73.9999 19.995ZM76.7699 19.995C76.7973 21.1844 76.5832 22.367 76.1405 23.4713C75.6979 24.5756 75.036 25.5787 74.1948 26.4199C73.3535 27.2611 72.3504 27.9231 71.2462 28.3657C70.1419 28.8083 68.9593 29.0224 67.7699 28.995C66.5805 29.0224 65.3979 28.8083 64.2937 28.3657C63.1894 27.9231 62.1863 27.2611 61.345 26.4199C60.5038 25.5787 59.8419 24.5756 59.3993 23.4713C58.9566 22.367 58.7426 21.1844 58.7699 19.995C58.7468 18.8068 58.9638 17.6261 59.4079 16.5237C59.852 15.4214 60.5141 14.42 61.3545 13.5796C62.1949 12.7392 63.1962 12.0772 64.2986 11.6331C65.401 11.1889 66.5817 10.9719 67.7699 10.995C68.9585 10.9705 70.1398 11.1866 71.2428 11.6302C72.3459 12.0738 73.3478 12.7358 74.1885 13.5765C75.0291 14.4171 75.6912 15.4191 76.1348 16.5221C76.5784 17.6251 76.7944 18.8064 76.7699 19.995Z" fill="#191921"/>
<path d="M89.2296 11.3452L85.7296 23.9152L82.2196 11.3452H79.3496L84.3996 28.6552H86.9396L91.9896 11.3452H89.2296Z" fill="#191921"/>
<path d="M120.63 19.2853H121.45C122.17 19.2853 125.01 19.2853 125.01 16.4653C125.01 13.9853 122.79 13.8153 121.53 13.8153H120.63V19.2853ZM121.1 11.3453C122.689 11.2159 124.28 11.5641 125.67 12.3453C126.322 12.8065 126.85 13.4206 127.21 14.1337C127.569 14.8468 127.747 15.6371 127.73 16.4353C127.757 17.5657 127.385 18.6694 126.679 19.5527C125.973 20.436 124.978 21.0423 123.87 21.2653L129.28 28.6553H126.07L121.07 21.5553H120.63V28.6553H118V11.3453H121.1Z" fill="#191921"/>
<path d="M133.461 11.3452V28.6552H143.011V26.1852H136.131V20.4452H142.811V17.9752H136.131V13.8152H143.011V11.3452H133.461Z" fill="#191921"/>
<path d="M151.53 19.1552H152.69C153.85 19.1552 155.93 18.8852 155.93 16.4652C155.93 14.0452 153.63 13.8152 152.63 13.8152H151.53V19.1552ZM152.63 11.3452C153.956 11.2602 155.277 11.5886 156.41 12.2852C157.107 12.7375 157.678 13.361 158.066 14.0962C158.455 14.8314 158.649 15.6539 158.63 16.4852C158.647 17.2019 158.505 17.9135 158.215 18.5688C157.924 19.2241 157.492 19.8069 156.95 20.2752C155.752 21.2273 154.248 21.7107 152.72 21.6352H151.53V28.6352H148.85V11.3452H152.63Z" fill="#191921"/>
<path d="M165.08 11.3447V21.7847C165.004 22.8122 165.183 23.8425 165.6 24.7847C165.923 25.3427 166.394 25.8016 166.959 26.1118C167.525 26.422 168.165 26.5717 168.81 26.5447C169.457 26.5816 170.102 26.4362 170.671 26.1251C171.24 25.8141 171.711 25.3497 172.03 24.7847C172.444 23.8418 172.622 22.8121 172.55 21.7847V11.3447H175.22V22.4747C175.284 24.1288 174.716 25.7454 173.63 26.9947C173.006 27.637 172.26 28.1476 171.435 28.4963C170.611 28.845 169.725 29.0246 168.83 29.0246C167.934 29.0246 167.048 28.845 166.224 28.4963C165.399 28.1476 164.653 27.637 164.03 26.9947C162.941 25.7536 162.365 24.1447 162.42 22.4947V11.3447H165.08Z" fill="#191921"/>
<path d="M183.11 26.1853H184.7C187.54 26.1853 188.11 24.6753 188.11 23.5653C188.11 22.4553 187.47 20.9653 184.75 20.9653H183.11V26.1853ZM183.11 18.7853H183.91C184.27 18.8408 184.637 18.8154 184.986 18.7109C185.335 18.6064 185.656 18.4254 185.926 18.1812C186.196 17.9369 186.409 17.6355 186.548 17.2989C186.687 16.9623 186.749 16.599 186.73 16.2353C186.739 15.8877 186.673 15.5422 186.534 15.2231C186.396 14.9039 186.19 14.619 185.929 14.3883C185.669 14.1576 185.362 13.9868 185.028 13.8878C184.695 13.7888 184.344 13.7641 184 13.8153H183.11V18.7853ZM183.11 11.3453C184.597 11.1835 186.097 11.5024 187.39 12.2553C188.029 12.6819 188.549 13.2653 188.899 13.9498C189.249 14.6343 189.418 15.397 189.39 16.1653C189.415 16.7788 189.289 17.3892 189.022 17.9422C188.755 18.4952 188.356 18.9737 187.86 19.3353C188.749 19.6068 189.524 20.163 190.066 20.9183C190.608 21.6736 190.887 22.5861 190.86 23.5153C190.87 24.2562 190.721 24.9907 190.423 25.6688C190.124 26.347 189.683 26.9529 189.13 27.4453C187.783 28.3866 186.145 28.8157 184.51 28.6553H180.51V11.3453H183.11Z" fill="#191921"/>
<path d="M210.619 11.3452H207.949V28.6652H210.619V11.3452Z" fill="#191921"/>
<path d="M229.129 27.225C227.538 28.3988 225.607 29.0204 223.629 28.995C222.44 29.0224 221.257 28.8083 220.153 28.3657C219.049 27.9231 218.046 27.2611 217.204 26.4199C216.363 25.5787 215.701 24.5756 215.259 23.4713C214.816 22.367 214.602 21.1844 214.629 19.995C214.605 18.8064 214.821 17.6251 215.264 16.5221C215.708 15.4191 216.37 14.4171 217.211 13.5765C218.051 12.7358 219.053 12.0738 220.156 11.6302C221.259 11.1866 222.441 10.9705 223.629 10.995C225.604 10.9741 227.532 11.5991 229.119 12.775L227.579 14.775C226.456 13.8911 225.058 13.4277 223.629 13.465C219.959 13.465 217.389 16.195 217.389 20.025C217.389 23.855 219.959 26.535 223.629 26.535C225.08 26.5694 226.496 26.0914 227.629 25.185L229.129 27.225Z" fill="#191921"/>
</g>
</svg>
