<svg width="15" height="18" viewBox="0 0 15 18" fill="none" xmlns="http://www.w3.org/2000/svg">
<path fill-rule="evenodd" clip-rule="evenodd" d="M7.50078 0V4.5486C7.50078 4.9302 7.50078 5.3019 7.54218 5.6079C7.58808 5.9526 7.70148 6.3459 8.02818 6.6726C8.35488 6.9993 8.74818 7.1127 9.09378 7.1586C9.39978 7.2 9.77058 7.2 10.1522 7.2H14.7008V12.6C14.7008 15.1452 14.7008 16.4187 13.9097 17.2089C13.1195 18 11.846 18 9.30078 18H5.70078C3.15558 18 1.88208 18 1.09188 17.2089C0.300781 16.4187 0.300781 15.1452 0.300781 12.6V5.4C0.300781 2.8548 0.300781 1.5813 1.09188 0.7911C1.88208 -5.36442e-08 3.15558 0 5.70078 0H7.50078ZM9.30078 0.0045001V4.5C9.30078 4.95 9.30258 5.1966 9.32598 5.3676V5.3739L9.33318 5.3748C9.50418 5.3982 9.75078 5.4 10.2008 5.4H14.6963C14.6873 5.0292 14.6576 4.7844 14.564 4.5567C14.4272 4.2264 14.1671 3.9654 13.646 3.4452L11.2556 1.0548C10.7354 0.5346 10.4753 0.2736 10.1441 0.1368C9.91638 0.0423 9.67158 0.0135001 9.30078 0.0045001Z" fill="#F1F4FA"/>
</svg>
